<?xml version="1.0" standalone="no"?>
<!DOCTYPE svg PUBLIC "-//W3C//DTD SVG 20010904//EN"
 "http://www.w3.org/TR/2001/REC-SVG-20010904/DTD/svg10.dtd">
<svg version="1.0" xmlns="http://www.w3.org/2000/svg"
 width="500.000000pt" height="500.000000pt" viewBox="0 0 500.000000 500.000000"
 preserveAspectRatio="xMidYMid meet">
<metadata>
Created by potrace 1.14, written by Peter Selinger 2001-2017
</metadata>
<g transform="translate(0.000000,500.000000) scale(0.100000,-0.100000)"
fill="#000000" stroke="none">
<path d="M2497 4440 c-13 -30 -37 -89 -53 -130 -15 -41 -33 -78 -39 -82 -5 -4
-7 -8 -3 -8 6 0 -12 -50 -53 -145 -4 -11 -24 -60 -44 -108 -20 -48 -41 -100
-47 -115 -6 -15 -12 -29 -12 -32 -1 -5 -46 -116 -67 -165 -4 -11 -38 -94 -74
-185 -36 -91 -70 -174 -75 -185 -31 -70 -90 -220 -90 -232 0 -7 -4 -13 -10
-13 -5 0 -9 -3 -7 -8 2 -6 -31 -93 -69 -179 -8 -17 -14 -38 -14 -46 0 -8 -7
-20 -15 -27 -8 -7 -15 -18 -15 -26 0 -15 -81 -215 -115 -284 -66 -135 -133
-221 -237 -303 -109 -87 -287 -108 -433 -53 -38 15 -80 34 -92 42 -27 17 -28
9 -7 -42 25 -60 49 -155 60 -234 7 -53 6 -204 -1 -240 -2 -14 -7 -36 -10 -50
-3 -14 -7 -34 -9 -45 -2 -11 -13 -45 -25 -75 -25 -67 -25 -63 -1 -50 11 6 49
11 84 11 84 1 167 -39 255 -121 185 -174 461 -335 706 -410 22 -7 49 -16 60
-21 17 -6 65 -18 80 -20 2 0 19 -5 37 -10 35 -11 60 -15 123 -23 22 -3 31 -3
20 0 -47 12 -122 37 -150 50 -137 60 -178 81 -249 128 -45 30 -90 63 -101 74
-46 44 -95 102 -95 112 0 5 -3 10 -7 10 -15 0 -68 126 -78 185 -14 79 3 221
35 298 5 12 37 101 71 197 71 203 187 528 196 550 3 8 7 20 9 25 1 6 16 48 34
95 18 47 36 96 40 110 5 14 22 63 40 110 17 47 61 166 97 265 36 99 81 223
100 275 19 52 52 142 73 200 21 58 55 150 75 205 20 55 39 108 42 118 6 19 23
23 23 5 0 -6 23 -66 51 -132 65 -153 79 -186 89 -211 4 -11 17 -41 29 -67 12
-26 21 -51 21 -55 0 -4 8 -25 19 -47 16 -36 30 -69 36 -86 1 -3 11 -27 23 -53
12 -27 22 -51 22 -53 0 -2 9 -23 19 -47 11 -23 63 -148 117 -277 87 -212 116
-282 144 -345 5 -11 20 -47 33 -80 14 -33 36 -87 50 -120 34 -81 50 -119 51
-125 1 -5 51 -123 154 -365 70 -164 82 -209 86 -318 6 -147 -41 -255 -158
-365 -104 -97 -297 -199 -455 -242 -23 -6 -41 -13 -38 -16 10 -10 256 58 367
102 136 54 283 123 288 137 2 4 8 7 14 7 23 0 208 132 293 210 114 105 175
135 270 135 39 0 79 -2 90 -5 22 -6 23 -6 -5 71 -11 32 -22 74 -25 95 -4 22
-8 50 -11 64 -7 36 -6 199 1 240 14 86 29 148 45 190 9 25 20 57 24 73 6 24 4
26 -11 17 -72 -40 -322 -47 -406 -11 -27 12 -53 21 -59 21 -15 0 -99 59 -147
104 -102 97 -152 184 -266 471 -48 121 -91 229 -96 240 -43 101 -58 136 -60
143 -2 11 -18 52 -35 97 -9 22 -20 49 -24 60 -4 11 -15 36 -23 55 -8 19 -63
157 -122 305 -59 149 -113 284 -120 300 -7 17 -43 107 -80 200 -37 94 -74 186
-82 205 -9 19 -24 57 -34 85 l-18 50 -24 -55z"/>
<path d="M890 1286 c92 -109 232 -247 314 -311 21 -16 44 -35 50 -40 6 -6 34
-26 61 -45 28 -19 52 -37 55 -40 8 -8 109 -73 160 -102 147 -84 377 -180 465
-195 17 -3 38 -9 48 -14 9 -5 17 -8 17 -5 0 3 14 1 32 -4 31 -9 42 -11 168
-29 68 -10 464 -7 515 3 27 5 54 10 125 22 48 8 215 57 242 71 15 7 29 13 30
12 3 -1 26 8 128 52 64 27 237 124 261 145 8 8 19 14 23 14 6 0 34 19 131 93
16 12 46 37 66 55 20 17 39 32 43 32 9 0 202 192 251 250 l39 45 -55 -52
c-109 -104 -146 -136 -234 -202 -49 -38 -122 -89 -161 -114 -75 -48 -284 -159
-284 -150 0 3 -10 -1 -22 -9 -23 -15 -192 -73 -238 -82 -14 -3 -36 -8 -50 -11
-33 -8 -119 -16 -205 -19 -128 -5 -238 29 -304 93 -33 32 -63 85 -54 95 4 3 4
6 0 6 -3 0 -15 -20 -25 -44 -30 -67 -121 -126 -222 -142 -107 -17 -267 -10
-365 16 -22 6 -49 12 -60 15 -88 17 -390 150 -436 191 -8 8 -18 14 -22 14 -11
0 -148 96 -221 154 -86 69 -122 100 -216 190 -41 39 -63 58 -50 42z"/>
<path d="M2718 823 c7 -3 16 -2 19 1 4 3 -2 6 -13 5 -11 0 -14 -3 -6 -6z"/>
</g>
</svg>
