<?xml version="1.0" standalone="no"?>
<!DOCTYPE svg PUBLIC "-//W3C//DTD SVG 20010904//EN"
 "http://www.w3.org/TR/2001/REC-SVG-20010904/DTD/svg10.dtd">
<svg version="1.0" xmlns="http://www.w3.org/2000/svg"
 width="1478.000000pt" height="1478.000000pt" viewBox="0 0 1478.000000 1478.000000"
 preserveAspectRatio="xMidYMid meet">
<metadata>
Created by potrace 1.14, written by Peter Selinger 2001-2017
</metadata>
<g transform="translate(0.000000,1478.000000) scale(0.100000,-0.100000)"
fill="#000000" stroke="none">
<path d="M3917 10994 c-1 -1 -47 -4 -102 -8 -55 -3 -113 -8 -130 -11 -123 -21
-121 -20 -239 -50 -157 -41 -287 -90 -461 -175 -511 -251 -932 -655 -1200
-1150 -54 -101 -84 -169 -91 -206 -1 -5 -13 -36 -28 -67 -14 -32 -38 -85 -52
-120 -14 -34 -32 -75 -39 -92 -8 -16 -26 -59 -41 -95 -15 -36 -33 -80 -40 -97
-8 -18 -15 -36 -15 -40 0 -5 -7 -19 -15 -33 -7 -14 -40 -90 -73 -170 -33 -80
-74 -176 -91 -215 -17 -38 -31 -71 -31 -73 1 -1 -6 -19 -15 -40 -8 -20 -31
-75 -51 -122 -19 -47 -41 -98 -48 -115 -7 -16 -136 -325 -285 -685 -149 -360
-277 -668 -285 -685 -7 -16 -29 -70 -50 -120 -20 -49 -43 -103 -50 -120 -7
-16 -52 -124 -99 -240 -47 -115 -93 -223 -101 -240 -46 -96 -160 -398 -180
-475 -70 -280 -77 -556 -20 -790 3 -14 8 -36 11 -49 7 -36 74 -200 102 -251
85 -155 251 -343 377 -427 135 -90 303 -165 450 -199 193 -45 -17 -43 5145
-41 2687 2 4901 6 4920 10 19 4 51 10 70 13 604 101 1201 466 1610 984 28 36
57 72 63 80 41 52 151 233 203 335 34 66 105 226 159 355 53 129 103 249 110
265 7 17 52 125 100 240 47 116 92 224 100 240 7 17 52 125 99 240 48 116 98
235 111 265 13 30 46 111 75 180 28 69 55 134 60 145 5 11 44 103 86 205 42
102 82 199 89 215 7 17 52 125 99 240 48 116 91 219 96 230 9 20 71 166 132
315 17 41 36 89 43 105 67 155 265 641 278 680 14 47 44 155 53 200 7 32 19
111 29 190 7 55 8 275 1 315 -3 14 -7 46 -10 71 -8 64 -42 192 -73 272 -85
227 -254 442 -455 578 -119 81 -339 175 -451 193 -20 3 -56 10 -79 15 -24 6
-76 13 -117 17 -56 5 -9647 13 -9654 8z"/>
</g>
</svg>
